<svg id="icons" enable-background="new 0 0 64 64" height="512" viewBox="0 0 64 64" width="512" xmlns="http://www.w3.org/2000/svg"><g fill="#656d78"><path d="m54.5 10v8h-.04-3.96v-8c0-1.1.9-2 2-2 1.11 0 2 .9 2 2z"/><path d="m54.5 45v8l-2 2-2-2v-8z"/><path d="m17.5 45v5h-4c-.55 0-1-.45-1-1v-3c0-.53.42-.97.95-1h.05z"/><path d="m42.5 46v3c0 .55-.45 1-1 1h-4v-5h4 .05c.53.03.95.47.95 1z"/><path d="m17.5 45h10c-2.76 0-5 2.24-5 5h-5z"/><path d="m37.5 45v5h-5c0-2.76-2.23-5-5-5z"/></g><path d="m27.5 45c2.77 0 5 2.24 5 5 0 2.77-2.23 5-5 5-2.76 0-5-2.23-5-5 0-2.76 2.24-5 5-5z" fill="#ccd1d9"/><path d="m13.45 45c-.53.03-.95.47-.95 1v-41c0-.54.45-1 1-1h28c.55 0 1 .46 1 1v41c0-.53-.42-.97-.95-1-.02 0-.03 0-.05 0h-4-10-10-4c-.02 0-.03 0-.05 0z" fill="#5d9cec"/><path d="m41.5 58h-28c-2.2 0-4-1.8-4-4v-42-7c0-2.2 1.8-4 4-4h28c2.2 0 4 1.8 4 4v7 42c0 2.2-1.8 4-4 4zm-14-3c2.77 0 5-2.23 5-5h5 4c.55 0 1-.45 1-1v-3-41c0-.54-.45-1-1-1h-28c-.55 0-1 .46-1 1v41 3c0 .55.45 1 1 1h4 5c0 2.77 2.24 5 5 5z" fill="#545c66"/><path d="m45.5 54v5c0 2.2-1.8 4-4 4h-28c-2.2 0-4-1.8-4-4v-5c0 2.2 1.8 4 4 4h28c2.2 0 4-1.8 4-4z" fill="#434a54"/><path d="m54.5 18v27h-4v-27h3.96z" fill="#e6e9ed"/><path d="m30.485 4-4.004 41h-3.969l4.004-41z" fill="#87bcf4"/><path d="m32.487 4-4.004 41h-.966l4.004-41z" fill="#87bcf4"/><path d="m12.5 45h.95v1h-.95z" fill="#656d78"/><path d="m41.5 45h1v1h-1z" fill="#656d78"/><path d="m27.533 51.002c-.553 0-1.005-.447-1.005-1s.442-1 .994-1h.011c.552 0 1 .447 1 1s-.448 1-1 1z" fill="#aab2bd"/><path d="m17.5 45.003h2v4.999h-2z" fill="#545c66"/><path d="m35.499 45.003h2v4.999h-2z" fill="#545c66"/></svg>